<svg width="192" height="192" viewBox="0 0 192 192" fill="none" xmlns="http://www.w3.org/2000/svg">
  <rect width="192" height="192" rx="44" fill="url(#bg)"/>
  <rect x="14" y="14" width="164" height="164" rx="34" fill="#F5FFFB" stroke="#84BEAB" stroke-width="4"/>
  <circle cx="32" cy="30" r="9" stroke="#84BEAB" stroke-width="3" opacity="0.8"/>
  <path d="M156 24V42" stroke="#6AB79E" stroke-width="4" stroke-linecap="round"/>
  <path d="M147 33H165" stroke="#6AB79E" stroke-width="4" stroke-linecap="round"/>
  <path d="M149 26L163 40" stroke="#8FD0BA" stroke-width="4" stroke-linecap="round"/>
  <path d="M149 40L163 26" stroke="#8FD0BA" stroke-width="4" stroke-linecap="round"/>
  <rect x="60" y="44" width="72" height="72" rx="24" fill="url(#face)" stroke="#2A1F18" stroke-width="4"/>
  <rect x="69" y="60" width="20" height="16" rx="6" stroke="#2A1F18" stroke-width="4"/>
  <rect x="103" y="60" width="20" height="16" rx="6" stroke="#2A1F18" stroke-width="4"/>
  <rect x="89" y="65" width="14" height="4" rx="2" fill="#2A1F18"/>
  <rect x="94" y="79" width="4" height="11" rx="2" fill="#2A1F18"/>
  <path d="M78 88C80 94 84 97 89 97" stroke="#2A1F18" stroke-width="4" stroke-linecap="round"/>
  <path d="M114 88C112 94 108 97 103 97" stroke="#2A1F18" stroke-width="4" stroke-linecap="round"/>
  <path d="M80 101C84 108 90 111 96 111C102 111 108 108 112 101" stroke="#2A1F18" stroke-width="4" stroke-linecap="round"/>
  <text x="96" y="144" text-anchor="middle" font-family="Trebuchet MS, sans-serif" font-size="34" font-weight="900" fill="#275849">OK</text>
  <defs>
    <linearGradient id="bg" x1="96" y1="0" x2="96" y2="192" gradientUnits="userSpaceOnUse">
      <stop stop-color="#BFF7E0"/>
      <stop offset="1" stop-color="#A5ECD3"/>
    </linearGradient>
    <linearGradient id="face" x1="96" y1="44" x2="96" y2="116" gradientUnits="userSpaceOnUse">
      <stop stop-color="#FFE8AD"/>
      <stop offset="1" stop-color="#FFD692"/>
    </linearGradient>
  </defs>
</svg>
