<svg width="512" height="512" viewBox="0 0 512 512" fill="none" xmlns="http://www.w3.org/2000/svg">
  <rect width="512" height="512" rx="120" fill="url(#bg)"/>
  <rect x="32" y="32" width="448" height="448" rx="96" fill="#F5FFFB" stroke="#84BEAB" stroke-width="10"/>
  <circle cx="84" cy="82" r="24" stroke="#84BEAB" stroke-width="8" opacity="0.8"/>
  <path d="M417 66V118" stroke="#6AB79E" stroke-width="10" stroke-linecap="round"/>
  <path d="M391 92H443" stroke="#6AB79E" stroke-width="10" stroke-linecap="round"/>
  <path d="M397 72L437 112" stroke="#8FD0BA" stroke-width="10" stroke-linecap="round"/>
  <path d="M397 112L437 72" stroke="#8FD0BA" stroke-width="10" stroke-linecap="round"/>
  <rect x="168" y="118" width="176" height="176" rx="68" fill="url(#face)" stroke="#2A1F18" stroke-width="8"/>
  <rect x="190" y="156" width="50" height="40" rx="16" stroke="#2A1F18" stroke-width="8"/>
  <rect x="272" y="156" width="50" height="40" rx="16" stroke="#2A1F18" stroke-width="8"/>
  <rect x="239" y="166" width="34" height="8" rx="4" fill="#2A1F18"/>
  <rect x="248" y="199" width="8" height="28" rx="4" fill="#2A1F18"/>
  <path d="M216 223C223 238 235 246 248 246" stroke="#2A1F18" stroke-width="8" stroke-linecap="round"/>
  <path d="M296 223C289 238 277 246 264 246" stroke="#2A1F18" stroke-width="8" stroke-linecap="round"/>
  <path d="M214 253C224 274 244 286 256 286C268 286 288 274 298 253" stroke="#2A1F18" stroke-width="8" stroke-linecap="round"/>
  <text x="256" y="388" text-anchor="middle" font-family="Trebuchet MS, sans-serif" font-size="88" font-weight="900" fill="#275849">OK</text>
  <defs>
    <linearGradient id="bg" x1="256" y1="0" x2="256" y2="512" gradientUnits="userSpaceOnUse">
      <stop stop-color="#BFF7E0"/>
      <stop offset="1" stop-color="#A5ECD3"/>
    </linearGradient>
    <linearGradient id="face" x1="256" y1="118" x2="256" y2="294" gradientUnits="userSpaceOnUse">
      <stop stop-color="#FFE8AD"/>
      <stop offset="1" stop-color="#FFD692"/>
    </linearGradient>
  </defs>
</svg>
